<svg xmlns="http://www.w3.org/2000/svg" viewBox="0 0 400 400" width="400" height="400" role="img">
  <defs>
    <linearGradient id="bgmines" x1="0" y1="0" x2="1" y2="1">
      <stop offset="0" stop-color="#151925"/><stop offset="1" stop-color="#0b0d14"/>
    </linearGradient>
    <radialGradient id="glowmines" cx="50%" cy="38%" r="62%">
      <stop offset="0" stop-color="#10b981" stop-opacity="0.55"/>
      <stop offset="0.55" stop-color="#10b981" stop-opacity="0.12"/>
      <stop offset="1" stop-color="#10b981" stop-opacity="0"/>
    </radialGradient>
    <linearGradient id="rimmines" x1="0" y1="0" x2="1" y2="1">
      <stop offset="0" stop-color="#f0c674" stop-opacity="0.5"/>
      <stop offset="1" stop-color="#d6a84f" stop-opacity="0.05"/>
    </linearGradient>
  </defs>
  <rect width="400" height="400" fill="url(#bgmines)"/>
  <rect width="400" height="400" fill="url(#glowmines)"/>
  <g transform="translate(200 205)"><g transform="translate(-128 -128)"><rect x="-27" y="-27" width="54" height="54" rx="11" fill="#0d1018" stroke="#2a3242" stroke-width="1.5"/><path d="M0 -17 L15 -5 L9 15 L-9 15 L-15 -5 Z" fill="#10b981" fill-opacity="0.9"/><path d="M0 -17 L0 15" stroke="#fff" stroke-opacity="0.35"/></g><g transform="translate(-64 -128)"><rect x="-27" y="-27" width="54" height="54" rx="11" fill="#0d1018" stroke="#2a3242" stroke-width="1.5"/></g><g transform="translate(0 -128)"><rect x="-27" y="-27" width="54" height="54" rx="11" fill="#0d1018" stroke="#2a3242" stroke-width="1.5"/></g><g transform="translate(64 -128)"><rect x="-27" y="-27" width="54" height="54" rx="11" fill="#0d1018" stroke="#2a3242" stroke-width="1.5"/><path d="M0 -17 L15 -5 L9 15 L-9 15 L-15 -5 Z" fill="#10b981" fill-opacity="0.9"/><path d="M0 -17 L0 15" stroke="#fff" stroke-opacity="0.35"/></g><g transform="translate(128 -128)"><rect x="-27" y="-27" width="54" height="54" rx="11" fill="#0d1018" stroke="#2a3242" stroke-width="1.5"/></g><g transform="translate(-128 -64)"><rect x="-27" y="-27" width="54" height="54" rx="11" fill="#0d1018" stroke="#2a3242" stroke-width="1.5"/><circle r="13" fill="#f43f5e" fill-opacity="0.9"/><circle r="4" fill="#0b0d14"/></g><g transform="translate(-64 -64)"><rect x="-27" y="-27" width="54" height="54" rx="11" fill="#0d1018" stroke="#2a3242" stroke-width="1.5"/></g><g transform="translate(0 -64)"><rect x="-27" y="-27" width="54" height="54" rx="11" fill="#0d1018" stroke="#2a3242" stroke-width="1.5"/><path d="M0 -17 L15 -5 L9 15 L-9 15 L-15 -5 Z" fill="#10b981" fill-opacity="0.9"/><path d="M0 -17 L0 15" stroke="#fff" stroke-opacity="0.35"/></g><g transform="translate(64 -64)"><rect x="-27" y="-27" width="54" height="54" rx="11" fill="#0d1018" stroke="#2a3242" stroke-width="1.5"/></g><g transform="translate(128 -64)"><rect x="-27" y="-27" width="54" height="54" rx="11" fill="#0d1018" stroke="#2a3242" stroke-width="1.5"/></g><g transform="translate(-128 0)"><rect x="-27" y="-27" width="54" height="54" rx="11" fill="#0d1018" stroke="#2a3242" stroke-width="1.5"/></g><g transform="translate(-64 0)"><rect x="-27" y="-27" width="54" height="54" rx="11" fill="#0d1018" stroke="#2a3242" stroke-width="1.5"/><path d="M0 -17 L15 -5 L9 15 L-9 15 L-15 -5 Z" fill="#10b981" fill-opacity="0.9"/><path d="M0 -17 L0 15" stroke="#fff" stroke-opacity="0.35"/></g><g transform="translate(0 0)"><rect x="-27" y="-27" width="54" height="54" rx="11" fill="#0d1018" stroke="#2a3242" stroke-width="1.5"/><path d="M0 -17 L15 -5 L9 15 L-9 15 L-15 -5 Z" fill="#10b981" fill-opacity="0.9"/><path d="M0 -17 L0 15" stroke="#fff" stroke-opacity="0.35"/></g><g transform="translate(64 0)"><rect x="-27" y="-27" width="54" height="54" rx="11" fill="#0d1018" stroke="#2a3242" stroke-width="1.5"/></g><g transform="translate(128 0)"><rect x="-27" y="-27" width="54" height="54" rx="11" fill="#0d1018" stroke="#2a3242" stroke-width="1.5"/><circle r="13" fill="#f43f5e" fill-opacity="0.9"/><circle r="4" fill="#0b0d14"/></g><g transform="translate(-128 64)"><rect x="-27" y="-27" width="54" height="54" rx="11" fill="#0d1018" stroke="#2a3242" stroke-width="1.5"/></g><g transform="translate(-64 64)"><rect x="-27" y="-27" width="54" height="54" rx="11" fill="#0d1018" stroke="#2a3242" stroke-width="1.5"/></g><g transform="translate(0 64)"><rect x="-27" y="-27" width="54" height="54" rx="11" fill="#0d1018" stroke="#2a3242" stroke-width="1.5"/></g><g transform="translate(64 64)"><rect x="-27" y="-27" width="54" height="54" rx="11" fill="#0d1018" stroke="#2a3242" stroke-width="1.5"/><path d="M0 -17 L15 -5 L9 15 L-9 15 L-15 -5 Z" fill="#10b981" fill-opacity="0.9"/><path d="M0 -17 L0 15" stroke="#fff" stroke-opacity="0.35"/></g><g transform="translate(128 64)"><rect x="-27" y="-27" width="54" height="54" rx="11" fill="#0d1018" stroke="#2a3242" stroke-width="1.5"/></g><g transform="translate(-128 128)"><rect x="-27" y="-27" width="54" height="54" rx="11" fill="#0d1018" stroke="#2a3242" stroke-width="1.5"/></g><g transform="translate(-64 128)"><rect x="-27" y="-27" width="54" height="54" rx="11" fill="#0d1018" stroke="#2a3242" stroke-width="1.5"/><path d="M0 -17 L15 -5 L9 15 L-9 15 L-15 -5 Z" fill="#10b981" fill-opacity="0.9"/><path d="M0 -17 L0 15" stroke="#fff" stroke-opacity="0.35"/></g><g transform="translate(0 128)"><rect x="-27" y="-27" width="54" height="54" rx="11" fill="#0d1018" stroke="#2a3242" stroke-width="1.5"/><circle r="13" fill="#f43f5e" fill-opacity="0.9"/><circle r="4" fill="#0b0d14"/></g><g transform="translate(64 128)"><rect x="-27" y="-27" width="54" height="54" rx="11" fill="#0d1018" stroke="#2a3242" stroke-width="1.5"/></g><g transform="translate(128 128)"><rect x="-27" y="-27" width="54" height="54" rx="11" fill="#0d1018" stroke="#2a3242" stroke-width="1.5"/><path d="M0 -17 L15 -5 L9 15 L-9 15 L-15 -5 Z" fill="#10b981" fill-opacity="0.9"/><path d="M0 -17 L0 15" stroke="#fff" stroke-opacity="0.35"/></g></g>
  <rect x="0.5" y="0.5" width="399" height="399" fill="none" stroke="url(#rimmines)" stroke-width="1.5"/>
</svg>
